<svg xmlns="http://www.w3.org/2000/svg" xmlns:svg="http://www.w3.org/2000/svg" viewBox="0 0 8.46667 10.5833375" version="1.1" x="0px" y="0px"><g transform="translate(-277.54786,-144.46246)"><path style="color:#000000;" d="m 279.26765,145.52131 c -0.36188,0 -0.66197,0.29856 -0.66197,0.66042 v 5.02709 c 0,0.36188 0.30009,0.66249 0.66197,0.66249 h 5.02709 c 0.36187,0 0.66249,-0.30061 0.66249,-0.66249 v -5.02709 c 0,-0.36186 -0.30062,-0.66042 -0.66249,-0.66042 z m 0.92553,1.3224 c 1.89689,0 3.43958,1.5427 3.43958,3.43958 a 0.2645835,0.2645835 0 0 1 -0.26355,0.26562 0.2645835,0.2645835 0 0 1 -0.26407,-0.26562 c 0,-1.61091 -1.30106,-2.90989 -2.91196,-2.9099 a 0.2645835,0.2645835 0 0 1 -0.26355,-0.26613 0.2645835,0.2645835 0 0 1 0.26355,-0.26355 z m 0,1.12293 c 1.27674,10e-6 2.31821,1.03992 2.3182,2.31665 a 0.2645835,0.2645835 0 0 1 -0.26562,0.26562 0.2645835,0.2645835 0 0 1 -0.26355,-0.26562 c 10e-6,-0.99075 -0.79828,-1.78696 -1.78903,-1.78697 a 0.2645835,0.2645835 0 0 1 -0.26355,-0.26561 0.2645835,0.2645835 0 0 1 0.26355,-0.26407 z m 0,1.02578 c 0.70987,0 1.29087,0.581 1.29087,1.29087 a 0.2645835,0.2645835 0 0 1 -0.26355,0.26562 0.2645835,0.2645835 0 0 1 -0.26561,-0.26562 c 0,-0.42388 -0.33782,-0.76171 -0.76171,-0.76171 a 0.2645835,0.2645835 0 0 1 -0.26355,-0.26355 0.2645835,0.2645835 0 0 1 0.26355,-0.26561 z m 0.045,0.93896 a 0.30783245,0.30783245 0 0 1 0.30747,0.30747 0.30783245,0.30783245 0 0 1 -0.30747,0.30799 0.30783245,0.30783245 0 0 1 -0.308,-0.30799 0.30783245,0.30783245 0 0 1 0.308,-0.30747 z" fill="#000000" stroke-linecap="round" stroke-linejoin="round"/></g><text x="0" y="23.46667" fill="#000000" font-size="5px" font-weight="bold" font-family="'Helvetica Neue', Helvetica, Arial-Unicode, Arial, Sans-serif">Created by Meko</text><text x="0" y="28.46667" fill="#000000" font-size="5px" font-weight="bold" font-family="'Helvetica Neue', Helvetica, Arial-Unicode, Arial, Sans-serif">from the Noun Project</text></svg>