<?xml version="1.0" encoding="UTF-8" standalone="no"?>
<!DOCTYPE svg PUBLIC "-//W3C//DTD SVG 1.1//EN" "http://www.w3.org/Graphics/SVG/1.1/DTD/svg11.dtd">
<svg width="100%" height="100%" viewBox="0 0 8 8" version="1.1" xmlns="http://www.w3.org/2000/svg" xmlns:xlink="http://www.w3.org/1999/xlink" xml:space="preserve" xmlns:serif="http://www.serif.com/" style="fill-rule:evenodd;clip-rule:evenodd;stroke-linejoin:round;stroke-miterlimit:2;">
    <g transform="matrix(1,0,0,1,-277.548,-144.462)">
        <path d="M279.268,145.521C278.906,145.521 278.606,145.82 278.606,146.182L278.606,151.209C278.606,151.571 278.906,151.871 279.268,151.871L284.295,151.871C284.657,151.871 284.957,151.571 284.957,151.209L284.957,146.182C284.957,145.82 284.657,145.521 284.295,145.521L279.268,145.521ZM280.193,146.844C282.09,146.844 283.633,148.386 283.633,150.283C283.633,150.284 283.633,150.284 283.633,150.284C283.633,150.429 283.514,150.548 283.369,150.549C283.224,150.549 283.105,150.429 283.105,150.284C283.105,150.284 283.105,150.284 283.105,150.283C283.105,148.672 281.804,147.373 280.193,147.373C280.048,147.373 279.93,147.254 279.93,147.109C279.93,147.108 279.93,147.108 279.93,147.107C279.93,146.963 280.049,146.844 280.193,146.844ZM280.193,147.967C281.47,147.967 282.511,149.007 282.511,150.283C282.511,150.284 282.511,150.284 282.511,150.284C282.511,150.429 282.392,150.549 282.247,150.549C282.246,150.549 282.246,150.549 282.246,150.549C282.101,150.548 281.982,150.429 281.982,150.284C281.982,150.284 281.982,150.284 281.982,150.283C281.982,149.293 281.184,148.496 280.193,148.496C280.048,148.496 279.929,148.376 279.93,148.231C279.93,148.086 280.049,147.967 280.193,147.967ZM280.193,148.992C280.903,148.992 281.484,149.573 281.484,150.283C281.484,150.284 281.484,150.284 281.484,150.284C281.484,150.429 281.365,150.548 281.22,150.549C281.22,150.549 281.22,150.549 281.219,150.549C281.074,150.549 280.955,150.429 280.955,150.284C280.955,150.284 280.955,150.284 280.955,150.283C280.955,149.859 280.617,149.522 280.193,149.522C280.049,149.521 279.93,149.402 279.93,149.258C279.929,149.113 280.048,148.993 280.193,148.992ZM280.238,149.931C280.407,149.932 280.545,150.07 280.546,150.239C280.546,150.408 280.407,150.547 280.238,150.547C280.238,150.547 280.238,150.547 280.238,150.547C280.069,150.547 279.93,150.408 279.93,150.239C279.93,150.239 279.93,150.239 279.93,150.239C279.93,150.07 280.069,149.931 280.238,149.931Z" style="fill-rule:nonzero;"/>
    </g>
</svg>
